<svg xmlns="http://www.w3.org/2000/svg" display="none">




	<symbol id="lupa_svg" viewBox="0 0 14 15">
		<g>
			<path d="M13.5528 12.9876L10.2208 9.48722C11.0775 8.45853 11.5469 7.16424 11.5469 5.81682C11.5469 2.66871 9.01117 0.107422 5.89444 0.107422C2.7777 0.107422 0.241943 2.66871 0.241943 5.81682C0.241943 8.96493 2.7777 11.5262 5.89444 11.5262C7.0645 11.5262 8.17952 11.1698 9.13282 10.4931L12.4902 14.02C12.6305 14.1672 12.8192 14.2484 13.0215 14.2484C13.2129 14.2484 13.3946 14.1746 13.5324 14.0406C13.8254 13.7559 13.8347 13.2837 13.5528 12.9876ZM5.89444 1.59683C8.1982 1.59683 10.0724 3.48987 10.0724 5.81682C10.0724 8.14377 8.1982 10.0368 5.89444 10.0368C3.59068 10.0368 1.71651 8.14377 1.71651 5.81682C1.71651 3.48987 3.59068 1.59683 5.89444 1.59683Z"/>

		</g>
	</symbol>



		<symbol id="whatsapp_svg" viewBox="0 0 22 23">
		<g>
			<path d="M16.2786 13.0774C16.2357 13.0566 14.6319 12.2589 14.3469 12.1553C14.2305 12.1131 14.1059 12.0719 13.9733 12.0719C13.7568 12.0719 13.5748 12.1809 13.4331 12.3951C13.2729 12.6356 12.7879 13.2082 12.6381 13.3793C12.6185 13.4019 12.5918 13.4289 12.5758 13.4289C12.5614 13.4289 12.3132 13.3256 12.238 13.2927C10.5175 12.5378 9.21161 10.7225 9.03251 10.4164C9.00695 10.3724 9.00587 10.3524 9.00566 10.3524C9.01193 10.3291 9.06981 10.2705 9.09967 10.2403C9.18703 10.153 9.28169 10.0379 9.37325 9.92661C9.41661 9.87388 9.46005 9.82106 9.50268 9.77128C9.63554 9.61517 9.69466 9.49395 9.76324 9.35354L9.79916 9.28059C9.96661 8.94457 9.82361 8.66108 9.77738 8.5695C9.73943 8.4929 9.06225 6.842 8.99023 6.66857C8.81707 6.25005 8.5883 6.05518 8.27038 6.05518C8.24086 6.05518 8.27038 6.05518 8.14667 6.06043C7.99602 6.06685 7.17566 6.17592 6.81296 6.4069C6.42831 6.65186 5.77759 7.4326 5.77759 8.80573C5.77759 10.0415 6.55403 11.2084 6.88738 11.6522C6.89568 11.6634 6.91089 11.6861 6.93297 11.7187C8.20962 13.6019 9.80114 14.9975 11.4145 15.6485C12.9677 16.2752 13.7032 16.3476 14.1213 16.3476C14.1214 16.3476 14.1214 16.3476 14.1214 16.3476C14.2971 16.3476 14.4378 16.3337 14.5619 16.3214L14.6406 16.3138C15.1771 16.2657 16.3563 15.6486 16.6245 14.8957C16.8358 14.3027 16.8915 13.6548 16.7509 13.4197C16.6546 13.2597 16.4887 13.1793 16.2786 13.0774Z" />
<path d="M11.1951 0.308594C5.23675 0.308594 0.389319 5.16802 0.389319 11.141C0.389319 13.0729 0.901163 14.964 1.87084 16.6191L0.0148892 22.1488C-0.0197007 22.2519 0.0060376 22.3659 0.0815337 22.4436C0.136061 22.4998 0.209967 22.5301 0.285463 22.5301C0.314381 22.5301 0.343514 22.5257 0.371959 22.5165L6.08053 20.6842C7.64266 21.5272 9.40824 21.9723 11.1951 21.9723C17.1528 21.9724 21.9998 17.1135 21.9998 11.141C21.9998 5.16802 17.1528 0.308594 11.1951 0.308594ZM11.1951 19.7159C9.51369 19.7159 7.88522 19.2255 6.48534 18.2977C6.43829 18.2664 6.38363 18.2504 6.32863 18.2504C6.29954 18.2504 6.27041 18.2549 6.24205 18.264L3.38239 19.1821L4.30553 16.4312C4.3354 16.3422 4.32044 16.244 4.26544 16.1681C3.19943 14.6969 2.63594 12.9586 2.63594 11.141C2.63594 6.41225 6.4755 2.56507 11.1949 2.56507C15.9138 2.56507 19.7529 6.41225 19.7529 11.141C19.7531 15.8693 15.914 19.7159 11.1951 19.7159Z"/>
		</g>
	</symbol>

<symbol id="mob_svg" viewBox="0 0 14 20">
		<g>
			<path d="M11.3752 0H10.3335H3.66683H2.62516C1.361 0 0.333496 1.0275 0.333496 2.29167V17.7083C0.333496 18.9725 1.361 20 2.62516 20H11.3752C12.6393 20 13.6668 18.9725 13.6668 17.7083V2.29167C13.6668 1.0275 12.6393 0 11.3752 0ZM12.0002 17.5C12.0002 17.96 11.6268 18.3333 11.1668 18.3333H2.8335C2.3735 18.3333 2.00016 17.96 2.00016 17.5V2.5C2.00016 2.04 2.3735 1.66667 2.8335 1.66667H3.25016C3.71016 1.66667 4.0835 2.04 4.0835 2.5C4.0835 2.96 4.45683 3.33333 4.91683 3.33333H9.0835C9.5435 3.33333 9.91683 2.96 9.91683 2.5C9.91683 2.04 10.2902 1.66667 10.7502 1.66667H11.1668C11.6268 1.66667 12.0002 2.04 12.0002 2.5V17.5Z"/>
		</g>
	</symbol>


<symbol id="menu_arrow_mob" viewBox="0 0 8 6">
		<g>
			<path d="M8 1.56736L6.86526 0.432617L4 3.29788L1.13474 0.432617L0 1.56736L4 5.56736L8 1.56736Z"/>
		</g>
	</symbol>






</svg>