<svg width="50" height="52" fill="none" xmlns="http://www.w3.org/2000/svg"><path d="M33.89 33.646H7.325a1.467 1.467 0 01-1.408-1.073L.056 11.859a1.492 1.492 0 01.24-1.298 1.46 1.46 0 011.169-.588h35.804l1.047-4.76a1.468 1.468 0 011.43-1.159h8.79c.808 0 1.464.663 1.464 1.48s-.656 1.48-1.465 1.48h-7.614l-5.289 24.039a4.446 4.446 0 012.65 4.073c0 2.447-1.972 4.438-4.395 4.438H7.324a1.472 1.472 0 01-1.465-1.48c0-.817.656-1.479 1.465-1.479h26.563c.807 0 1.465-.664 1.465-1.48 0-.814-.655-1.477-1.461-1.479zM3.408 12.932L8.43 30.687h24.283l3.906-17.755H3.407zm31.944 31.071c0 2.448-1.972 4.439-4.395 4.439-2.423 0-4.395-1.991-4.395-4.439 0-2.447 1.972-4.438 4.395-4.438 2.423 0 4.395 1.99 4.395 4.438zm-4.395-1.48c-.808 0-1.465.664-1.465 1.48s.657 1.48 1.465 1.48 1.465-.664 1.465-1.48-.657-1.48-1.465-1.48zm-16.309 1.48c0 2.448-1.971 4.439-4.394 4.439s-4.395-1.991-4.395-4.439c0-2.447 1.972-4.438 4.395-4.438 2.423 0 4.394 1.99 4.394 4.438zm-4.394-1.48c-.808 0-1.465.664-1.465 1.48s.657 1.48 1.465 1.48 1.465-.664 1.465-1.48-.657-1.48-1.465-1.48z" fill="#153C51"/></svg>